<svg width="1058" height="190" viewBox="0 0 1058 190" fill="none" xmlns="http://www.w3.org/2000/svg">
<g clip-path="url(#clip0_298_2279)">
<path d="M2014.26 175.728C1986.93 179.846 1957.13 183.031 1925.79 185.181C1746.29 197.392 1646.73 165.152 1449.5 164.25C1263.09 163.396 1262 191.785 1070.54 189.908C898.632 188.22 884.226 165.185 700.421 165.263C598.675 165.307 490.162 172.407 387.812 179.104C294.427 185.215 239.514 190.657 160.728 187.882C88.6217 185.35 34.0626 177.248 0 171.002L0.737285 39.8454C42.3054 31.0678 107.983 20.1668 191.694 19.0831C305.546 17.6078 343.309 35.7233 461.54 42.3774C639.58 52.3973 686.058 18.7455 908.335 19.4207C1101.95 20.0047 1128.47 46.0909 1324.16 42.3774C1450.76 39.977 1478.46 28.5358 1608.76 23.8095C1769.12 18.0028 1912.27 28.6473 2015 39.8454C2014.75 85.142 2014.51 130.436 2014.26 175.728Z" fill="#EFA942" fill-opacity="0.28"/>
</g>
<g clip-path="url(#clip1_298_2279)">
<path d="M2014.26 165.73C1986.93 169.848 1957.13 173.033 1925.79 175.183C1746.29 187.394 1646.73 155.153 1449.5 154.252C1263.09 153.398 1262 181.787 1070.54 179.91C898.632 178.222 884.226 155.187 700.421 155.265C598.675 155.309 490.162 162.408 387.812 169.106C294.427 175.217 239.514 180.659 160.728 177.884C88.6217 175.352 34.0626 167.25 0 161.004L0.737285 29.8473C42.3054 21.0698 107.983 10.1687 191.694 9.08506C305.546 7.60976 343.309 25.7253 461.54 32.3793C639.58 42.3992 686.058 8.74746 908.335 9.42266C1101.95 10.0067 1128.47 36.0929 1324.16 32.3793C1450.76 29.979 1478.46 18.5378 1608.76 13.8114C1769.12 8.00475 1912.27 18.6492 2015 29.8473C2014.75 75.1439 2014.51 120.438 2014.26 165.73Z" fill="url(#paint0_linear_298_2279)"/>
</g>
<defs>
<linearGradient id="paint0_linear_298_2279" x1="1007.5" y1="9" x2="1007.5" y2="179.999" gradientUnits="userSpaceOnUse">
<stop stop-color="white"/>
<stop offset="1" stop-color="#FFEDD1"/>
</linearGradient>
<clipPath id="clip0_298_2279">
<rect width="1058" height="171" fill="white" transform="translate(0 19)"/>
</clipPath>
<clipPath id="clip1_298_2279">
<rect width="1058" height="171" fill="white"/>
</clipPath>
</defs>
</svg>
