<svg width="1058" height="654" viewBox="0 0 1058 654" fill="none" xmlns="http://www.w3.org/2000/svg">
<path d="M2580.54 599.417C2526.24 615.167 2467.03 627.346 2404.77 635.57C2048.18 682.271 1850.39 558.965 1458.58 555.518C1088.25 552.251 1086.08 660.825 705.731 653.646C364.224 647.19 335.604 559.094 -29.5437 559.391C-231.671 559.559 -447.244 586.712 -650.573 612.329C-836.09 635.699 -945.181 656.513 -1101.7 645.899C-1244.94 636.216 -1353.33 605.228 -1421 581.341L-1419.54 79.7241C-1336.96 46.1538 -1206.48 4.46214 -1040.18 0.317508C-814.003 -5.32488 -738.981 63.959 -504.104 89.4078C-150.41 127.73 -58.0759 -0.973656 383.499 1.60867C768.127 3.84238 820.826 103.611 1209.58 89.4078C1461.07 80.2276 1516.12 36.4701 1774.96 18.3938C2093.53 -3.81422 2377.91 36.8962 2582 79.7241C2581.51 252.964 2581.02 426.195 2580.54 599.417Z" fill="#FBE7CA" fill-opacity="0.27"/>
</svg>
