<svg width="100" height="100" viewBox="0 0 100 100" fill="none" xmlns="http://www.w3.org/2000/svg">
<rect x="2" y="2" width="52" height="52" rx="6" stroke="#34786B" stroke-width="4"/>
<path d="M75.423 17.6688H65.2146L69.473 13.4104C69.6096 13.2748 69.7181 13.1136 69.7922 12.9358C69.8662 12.7581 69.9043 12.5675 69.9043 12.375C69.9043 12.1825 69.8662 11.9919 69.7922 11.8142C69.7181 11.6364 69.6096 11.4752 69.473 11.3396C69.1997 11.068 68.8301 10.9155 68.4448 10.9155C68.0596 10.9155 67.6899 11.068 67.4167 11.3396L60.723 18.0917C60.585 18.2291 60.4759 18.3927 60.4021 18.5729C60.2563 18.928 60.2563 19.3262 60.4021 19.6813C60.4814 19.8585 60.5898 20.0212 60.723 20.1625L67.475 26.9583C67.7443 27.2331 68.1112 27.3904 68.4959 27.3958C68.7855 27.3975 69.0691 27.3129 69.3105 27.1528C69.5519 26.9927 69.7401 26.7643 69.8512 26.4967C69.9623 26.2292 69.9912 25.9347 69.9342 25.6507C69.8772 25.3667 69.737 25.1061 69.5313 24.9021L65.273 20.5854H75.4813C76.6416 20.5854 77.7544 21.0464 78.5749 21.8668C79.3953 22.6873 79.8563 23.8001 79.8563 24.9604V38.625C79.8563 39.0118 80.0099 39.3827 80.2834 39.6562C80.5569 39.9297 80.9278 40.0833 81.3146 40.0833C81.7014 40.0833 82.0723 39.9297 82.3458 39.6562C82.6193 39.3827 82.773 39.0118 82.773 38.625V24.9604C82.773 23.9979 82.5825 23.045 82.2124 22.1565C81.8423 21.268 81.3 20.4616 80.6167 19.7837C79.9334 19.1058 79.1227 18.57 78.2313 18.207C77.3399 17.844 76.3854 17.6611 75.423 17.6688Z" fill="#34786B"/>
<path d="M24.577 81.3313H34.7854L30.527 85.5896C30.3904 85.7252 30.2819 85.8865 30.2078 86.0642C30.1338 86.2419 30.0957 86.4325 30.0957 86.625C30.0957 86.8175 30.1338 87.0081 30.2078 87.1859C30.2819 87.3636 30.3904 87.5249 30.527 87.6604C30.8003 87.932 31.1699 88.0845 31.5552 88.0845C31.9404 88.0845 32.3101 87.932 32.5833 87.6604L39.277 80.9083C39.415 80.771 39.5241 80.6073 39.5979 80.4271C39.7437 80.072 39.7437 79.6738 39.5979 79.3188C39.5186 79.1415 39.4102 78.9789 39.277 78.8375L32.525 72.0417C32.2557 71.7669 31.8888 71.6097 31.5041 71.6042C31.2145 71.6025 30.9309 71.6871 30.6895 71.8472C30.4481 72.0074 30.2599 72.2357 30.1488 72.5033C30.0377 72.7708 30.0088 73.0653 30.0658 73.3493C30.1228 73.6333 30.263 73.894 30.4687 74.0979L34.727 78.4146H24.5187C23.3584 78.4146 22.2456 77.9537 21.4251 77.1332C20.6047 76.3127 20.1437 75.1999 20.1437 74.0396L20.1437 60.375C20.1437 59.9882 19.9901 59.6173 19.7166 59.3438C19.4431 59.0703 19.0722 58.9167 18.6854 58.9167C18.2986 58.9167 17.9277 59.0703 17.6542 59.3438C17.3807 59.6173 17.227 59.9882 17.227 60.375L17.227 74.0396C17.227 75.0021 17.4175 75.955 17.7876 76.8435C18.1577 77.732 18.7 78.5385 19.3833 79.2163C20.0666 79.8942 20.8773 80.4301 21.7687 80.7931C22.6601 81.156 23.6146 81.339 24.577 81.3313Z" fill="#34786B"/>
<rect x="46" y="46" width="52" height="52" rx="6" stroke="#34786B" stroke-width="4"/>
<line x1="14.5" y1="16.5" x2="42.5" y2="16.5" stroke="#34786B" stroke-width="3" stroke-linecap="round"/>
<path d="M38.8927 18.5571C39.2004 17.7879 38.8263 16.915 38.0571 16.6073C37.2879 16.2996 36.415 16.6737 36.1073 17.4429L38.8927 18.5571ZM17.1 41.8C16.4373 42.2971 16.3029 43.2373 16.8 43.9C17.2971 44.5627 18.2373 44.6971 18.9 44.2L17.1 41.8ZM26.3887 36.1113L25.3281 35.0506L26.3887 36.1113ZM36.1073 17.4429L34.5633 21.3028L37.3487 22.417L38.8927 18.5571L36.1073 17.4429ZM25.8272 34.5514L25.3281 35.0506L27.4494 37.1719L27.9486 36.6728L25.8272 34.5514ZM20.3975 39.3269L17.1 41.8L18.9 44.2L22.1975 41.7269L20.3975 39.3269ZM25.3281 35.0506C23.7878 36.5909 22.1401 38.0199 20.3975 39.3269L22.1975 41.7269C24.0537 40.3347 25.8087 38.8126 27.4494 37.1719L25.3281 35.0506ZM34.5633 21.3028C33.6303 23.6354 32.4767 25.8735 31.1182 27.9867L33.6417 29.609C35.1035 27.3351 36.3448 24.9269 37.3487 22.417L34.5633 21.3028ZM31.1182 27.9867C29.594 30.3576 27.8203 32.5584 25.8272 34.5514L27.9486 36.6728C30.0931 34.5282 32.0017 32.1601 33.6417 29.609L31.1182 27.9867Z" fill="#34786B"/>
<path d="M38.8581 44.3277C39.5882 44.7191 40.4974 44.4445 40.8888 43.7144C41.2802 42.9843 41.0056 42.0751 40.2755 41.6837L38.8581 44.3277ZM21.8326 22.4902C21.4276 21.7676 20.5134 21.5101 19.7908 21.9151C19.0681 22.3201 18.8106 23.2343 19.2156 23.957L21.8326 22.4902ZM23.9152 29.2741L22.6067 30.0075L22.6554 30.0944L22.7152 30.1741L23.9152 29.2741ZM36.8938 41.5728L37.6025 40.2508L36.8938 41.5728ZM40.2755 41.6837L37.6025 40.2508L36.1851 42.8948L38.8581 44.3277L40.2755 41.6837ZM27.5405 31.6077L25.1152 28.3741L22.7152 30.1741L25.1405 33.4077L27.5405 31.6077ZM25.2237 28.5407L21.8326 22.4902L19.2156 23.957L22.6067 30.0075L25.2237 28.5407ZM37.6025 40.2508C35.6494 39.2038 33.8153 37.9485 32.1323 36.5069L30.1807 38.7854C32.0281 40.3677 34.0413 41.7456 36.1851 42.8948L37.6025 40.2508ZM32.1323 36.5069C30.4273 35.0465 28.8875 33.4036 27.5405 31.6077L25.1405 33.4077C26.6191 35.3791 28.3092 37.1824 30.1807 38.7854L32.1323 36.5069Z" fill="#34786B"/>
<line x1="28.5014" y1="14.5006" x2="28.5006" y2="16.5006" stroke="#34786B" stroke-width="3" stroke-linecap="round"/>
<path d="M79.8927 79.9429L79.5155 79H78.5H78.4766H78.4533H78.4301H78.4069H78.3839H78.3609H78.3381H78.3153H78.2926H78.27H78.2474H78.225H78.2026H78.1803H78.1581H78.136H78.114H78.0921H78.0702H78.0484H78.0267H78.0051H77.9836H77.9621H77.9408H77.9195H77.8983H77.8771H77.8561H77.8351H77.8142H77.7934H77.7727H77.752H77.7315H77.711H77.6906H77.6702H77.65H77.6298H77.6097H77.5896H77.5697H77.5498H77.53H77.5103H77.4906H77.471H77.4515H77.4321H77.4128H77.3935H77.3743H77.3552H77.3361H77.3171H77.2982H77.2794H77.2606H77.2419H77.2233H77.2047H77.1862H77.1678H77.1495H77.1312H77.113H77.0949H77.0768H77.0588H77.0409H77.0231H77.0053H76.9876H76.9699H76.9523H76.9348H76.9174H76.9H76.8827H76.8654H76.8482H76.8311H76.8141H76.7971H76.7802H76.7633H76.7465H76.7298H76.7131H76.6965H76.68H76.6635H76.6471H76.6307H76.6145H76.5982H76.5821H76.566H76.5499H76.5339H76.518H76.5022H76.4864H76.4706H76.4549H76.4393H76.4238H76.4083H76.3928H76.3774H76.3621H76.3468H76.3316H76.3165H76.3014H76.2863H76.2713H76.2564H76.2415H76.2267H76.212H76.1972H76.1826H76.168H76.1535H76.139H76.1245H76.1101H76.0958H76.0815H76.0673H76.0531H76.039H76.0249H76.0109H75.997H75.983H75.9692H75.9554H75.9416H75.9279H75.9142H75.9006H75.887H75.8735H75.8601H75.8466H75.8333H75.8199H75.8067H75.7934H75.7802H75.7671H75.754H75.741H75.728H75.715H75.7021H75.6893H75.6764H75.6637H75.6509H75.6383H75.6256H75.613H75.6005H75.588H75.5755H75.5631H75.5507H75.5383H75.526H75.5138H75.5016H75.4894H75.4772H75.4652H75.4531H75.4411H75.4291H75.4172H75.4053H75.3934H75.3816H75.3698H75.3581H75.3463H75.3347H75.323H75.3114H75.2999H75.2884H75.2769H75.2654H75.254H75.2426H75.2313H75.22H75.2087H75.1974H75.1862H75.1751H75.1639H75.1528H75.1417H75.1307H75.1197H75.1087H75.0977H75.0868H75.0759H75.0651H75.0543H75.0435H75.0327H75.022H75.0113H75.0006H74.9899H74.9793H74.9687H74.9582H74.9476H74.9371H74.9267H74.9162H74.9058H74.8954H74.885H74.8747H74.8643H74.854H74.8438H74.8335H74.8233H74.8131H74.803H74.7928H74.7827H74.7726H74.7625H74.7525H74.7424H74.7324H74.7224H74.7125H74.7025H74.6926H74.6827H74.6728H74.663H74.6531H74.6433H74.6335H74.6237H74.614H74.6042H74.5945H74.5848H74.5751H74.5654H74.5558H74.5462H74.5365H74.5269H74.5173H74.5078H74.4982H74.4887H74.4792H74.4697H74.4602H74.4507H74.4412H74.4318H74.4223H74.4129H74.4035H74.3941H74.3847H74.3754H74.366H74.3567H74.3473H74.338H74.3287H74.3194H74.3101H74.3008H74.2915H74.2823H74.273H74.2638H74.2546H74.2453H74.2361H74.2269H74.2177H74.2085H74.1993H74.1902H74.181H74.1718H74.1627H74.1535H74.1444H74.1352H74.1261H74.117H74.1078H74.0987H74.0896H74.0805H74.0714H74.0623H74.0531H74.044H74.0349H74.0259H74.0168H74.0077H73.9986H73.9895H73.9804H73.9713H73.9622H73.9531H73.944H73.9349H73.9259H73.9168H73.9077H73.8986H73.8895H73.8804H73.8713H73.8622H73.8531H73.844H73.8349H73.8257H73.8166H73.8075H73.7984H73.7892H73.7801H73.771H73.7618H73.7527H73.7435H73.7343H73.7252H73.716H73.7068H73.6976H73.6884H73.6792H73.67H73.6607H73.6515H73.6423H73.633H73.6237H73.6145H73.6052H73.5959H73.5866H73.5773H73.568H73.5586H73.5493H73.5399H73.5305H73.5211H73.5117H73.5023H73.4929H73.4835H73.474H73.4646H73.4551H73.4456H73.4361H73.4265H73.417H73.4074H73.3979H73.3883H73.3787H73.3691H73.3594H73.3498H73.3401H73.3304H73.3207H73.311H73.3012H73.2914H73.2817H73.2719H73.262H73.2522H73.2423H73.2324H73.2225H73.2126H73.2027H73.1927H73.1827H73.1727H73.1626H73.1526H73.1425H73.1324H73.1223H73.1121H73.1019H73.0917H73.0815H73.0713H73.061H73.0507H73.0404H73.03H73.0196H73.0092H72.9988H72.9884H72.9779H72.9674H72.9568H72.9462H72.9356H72.925H72.9144H72.9037H72.893H72.8822H72.8715H72.8607H72.8498H72.839H72.8281H72.8171H72.8062H72.7952H72.7842H72.7731H72.762H72.7509H72.7398H72.7286H72.7174H72.7061H72.6948H72.6835H72.6722H72.6608H72.6493H72.6379H72.6264H72.6149H72.6033H72.5917H72.58H72.5684H72.5566H72.5449H72.5331H72.5213H72.5094H72.4975H72.4855H72.4735H72.4615H72.4495H72.4373H72.4252H72.413H72.4008H72.3885H72.3762H72.3639H72.3515H72.339H72.3265H72.314H72.3015H72.2889H72.2762H72.2635H72.2508H72.238H72.2252H72.2123H72.1994H72.1864H72.1734H72.1603H72.1472H72.1341H72.1209H72.1077H72.0944H72.081H72.0676H72.0542H72.0407H72.0272H72.0136H72H71.9903H71.9806H71.9709H71.9614H71.9518H71.9424H71.9329H71.9236H71.9142H71.905H71.8957H71.8866H71.8774H71.8684H71.8593H71.8503H71.8414H71.8325H71.8237H71.8149H71.8061H71.7974H71.7887H71.7801H71.7715H71.763H71.7545H71.7461H71.7377H71.7293H71.721H71.7127H71.7044H71.6962H71.6881H71.68H71.6719H71.6638H71.6558H71.6479H71.6399H71.632H71.6242H71.6164H71.6086H71.6008H71.5931H71.5854H71.5778H71.5702H71.5626H71.555H71.5475H71.54H71.5326H71.5252H71.5178H71.5104H71.5031H71.4958H71.4885H71.4813H71.4741H71.4669H71.4597H71.4526H71.4455H71.4384H71.4314H71.4243H71.4173H71.4104H71.4034H71.3965H71.3896H71.3827H71.3758H71.369H71.3622H71.3554H71.3486H71.3419H71.3352H71.3285H71.3218H71.3151H71.3084H71.3018H71.2952H71.2886H71.282H71.2755H71.2689H71.2624H71.2559H71.2494H71.2429H71.2364H71.23H71.2235H71.2171H71.2107H71.2043H71.1979H71.1915H71.1851H71.1788H71.1724H71.1661H71.1597H71.1534H71.1471H71.1408H71.1345H71.1282H71.1219H71.1157H71.1094H71.1031H71.0969H71.0906H71.0844H71.0781H71.0719H71.0657H71.0594H71.0532H71.047H71.0408H71.0345H71.0283H71.0221H71.0159H71.0097H71.0034H70.9972H70.991H70.9848H70.9785H70.9723H70.9661H70.9598H70.9536H70.9474H70.9411H70.9348H70.9286H70.9223H70.9161H70.9098H70.9035H70.8972H70.8909H70.8846H70.8783H70.872H70.8656H70.8593H70.8529H70.8466H70.8402H70.8338H70.8274H70.821H70.8146H70.8081H70.8017H70.7952H70.7887H70.7822H70.7757H70.7692H70.7627H70.7561H70.7495H70.7429H70.7363H70.7297H70.7231H70.7164H70.7097H70.703H70.6963H70.6896H70.6828H70.676H70.6692H70.6624H70.6556H70.6487H70.6418H70.6349H70.6279H70.621H70.614H70.607H70.5999H70.5929H70.5858H70.5787H70.5715H70.5643H70.5571H70.5499H70.5427H70.5354H70.5281H70.5207H70.5133H70.5059H70.4985H70.491H70.4835H70.476H70.4684H70.4608H70.4532H70.4455H70.4378H70.4301H70.4223H70.4145H70.4067H70.3988H70.3909H70.3829H70.3749H70.3669H70.3588H70.3507H70.3426H70.3344H70.3262H70.3179H70.3096H70.3013H70.2929H70.2845H70.276H70.2675H70.2589H70.2503H70.2417H70.233H70.2242H70.2155H70.2066H70.1978H70.1889H70.1799H70.1709H70.1618H70.1527H70.1436H70.1344H70.1251H70.1158H70.1064H70.097H70.0876H70.0781H70.0685H70.0589H70.0493H70.0395H70.0298H70.02H70.0101H70.0002H69.9902H69.9801H69.97H69.9599H69.9497H69.9394H69.9291H69.9187H69.9083H69.8978H69.8872H69.8766H69.8659H69.8552H69.8444H69.8336H69.8226H69.8117H69.8006H69.7895H69.7784H69.7671H69.7558H69.7445H69.7331H69.7216H69.71H69.6984H69.6867H69.675H69.6632H69.6513H69.6393H69.6273H69.6152H69.6031H69.5908H69.5785H69.5662H69.5537H69.5412H69.5287H69.516H69.5033H69.4905H69.4776H69.4647H69.4517H69.4386H69.4254H69.4122H69.3989H69.3855H69.372H69.3585H69.3449H69.3312H69.3174H69.3035H69.2896H69.2756H69.2615H69.2473H69.2331H69.2188H69.2043H69.1899H69.1753H69.1606H69.1459H69.1311H69.1162H69.1012H69.0861H69.0709H69.0557H69.0404H69.025H69.0095H68.9939H68.9782H68.9624H68.9466H68.9307H68.9146H68.8985H68.8823H68.866H68.8496H68.8332H68.8166H68.7999H68.7832H68.7663H68.7494H68.7324H68.7153H68.698H68.6807H68.6633H68.6458H68.6282H68.6106H68.5928H68.5749H68.5569H68.5388H68.5207H68.5024H68.484H68.4655H68.447H68.4283H68.4095H68.3907H68.3717H68.3526H68.3334H68.3142H68.2948H68.2753H68.2557H68.236H68.2162H68.1963H68.1763H68.1562H68.136H68.1157H68.0952H68.0747H68.0541H68.0333H68.0125H67.9915H67.9704H67.9492H67.9279H67.9065H67.885H67.8634H67.8416H67.8198H67.7978H67.7757H67.7535H67.7312H67.7088H67.6863H67.6636H67.6409H67.618H67.595H67.5719H67.5486H67.5253H67.5018H67.4783H67.4546H67.4307H67.4068H67.3827H67.3586H67.3343H67.3099H67.2853H67.2607H67.2359H67.211H67.1859H67.1608H67.1355H67.1101H67.0846H67.0589H67.0332H67.0073H66.9812H66.9551H66.9288H66.9024H66.8759H66.8492H66.8224H66.7955H66.7685H66.7413H66.714H66.6865H66.659H66.6313H66.6034H66.5755H66.5474H66.5191H66.4908H66.4623H66.4337H66.4049H66.376H66.347H66.3178H66.2885H66.259H66.2295H66.1997H66.1699H66.1399H66.1098H66.0795H66.0491H66.0185H65.9878H65.957H65.926H65.8949H65.8637H65.8323H65.8007H65.7691H65.7372H65.7053H65.6731H65.6409H65.6085H65.5759H65.5432H65.5104H65.4774H65.4443H65.411H65.3776H65.344H65.3103H65.2764H65.2424H65.2082H65.1739H65.1394H65.1048H65.07H65.0351H65H64.0403L63.6381 79.8714C63.0672 81.1082 62.6199 82.1867 62.2551 83.0906C67.1944 70.2867 68.7058 63.589 69.4959 60.0794C69.7121 59.119 69.857 58.4794 69.9971 58.0168C70.0754 57.7584 70.1353 57.6171 70.1703 57.5457C70.1785 57.5443 70.1876 57.5428 70.1975 57.5413C70.4399 57.5041 70.7966 57.5 71.5 57.5C72.1851 57.5 72.5456 57.5121 72.7854 57.5553C72.8459 57.5662 72.8818 57.5766 72.9002 57.5828C72.934 57.6265 73.032 57.7777 73.1787 58.203C73.3435 58.6808 73.5179 59.3399 73.7638 60.3071C73.7991 60.4461 73.8355 60.59 73.8733 60.7388C74.7891 64.3533 76.4521 70.9165 81.1114 82.8117C80.7432 82.0087 80.3386 81.0575 79.8927 79.9429Z" stroke="#34786B" stroke-width="3"/>
</svg>
