<svg width="1058" height="171" viewBox="0 0 1058 171" fill="none" xmlns="http://www.w3.org/2000/svg">
<g clip-path="url(#clip0_136_2081)">
<path d="M1999.26 156.728C1971.93 160.846 1942.13 164.031 1910.79 166.181C1731.29 178.392 1631.73 146.152 1434.5 145.25C1248.09 144.396 1247 172.785 1055.54 170.908C883.632 169.22 869.226 146.185 685.421 146.263C583.675 146.307 475.162 153.407 372.812 160.104C279.427 166.215 224.514 171.657 145.728 168.882C73.6217 166.35 19.0626 158.248 -15 152.002L-14.2627 20.8454C27.3054 12.0678 92.9828 1.1668 176.694 0.0831077C290.546 -1.39219 328.309 16.7233 446.54 23.3774C624.58 33.3973 671.058 -0.25449 893.335 0.420705C1086.95 1.00475 1113.47 27.0909 1309.16 23.3774C1435.76 20.977 1463.46 9.53584 1593.76 4.80948C1754.12 -0.997205 1897.27 9.64725 2000 20.8454C1999.75 66.142 1999.51 111.436 1999.26 156.728Z" fill="url(#paint0_linear_136_2081)"/>
</g>
<defs>
<linearGradient id="paint0_linear_136_2081" x1="992.5" y1="-0.00195313" x2="992.5" y2="170.997" gradientUnits="userSpaceOnUse">
<stop stop-color="white"/>
<stop offset="1" stop-color="#FFEDD1"/>
</linearGradient>
<clipPath id="clip0_136_2081">
<rect width="2015" height="171" fill="white" transform="translate(-15)"/>
</clipPath>
</defs>
</svg>
