<svg width="1058" height="171" viewBox="0 0 1058 171" fill="none" xmlns="http://www.w3.org/2000/svg">
<g clip-path="url(#clip0_136_2075)">
<path d="M2014.26 156.728C1986.93 160.846 1957.13 164.031 1925.79 166.181C1746.29 178.392 1646.73 146.152 1449.5 145.25C1263.09 144.396 1262 172.785 1070.54 170.908C898.632 169.22 884.226 146.185 700.421 146.263C598.675 146.307 490.162 153.407 387.812 160.104C294.427 166.215 239.514 171.657 160.728 168.882C88.6217 166.35 34.0626 158.248 0 152.002L0.737285 20.8454C42.3054 12.0678 107.983 1.1668 191.694 0.0831077C305.546 -1.39219 343.309 16.7233 461.54 23.3774C639.58 33.3973 686.058 -0.25449 908.335 0.420705C1101.95 1.00475 1128.47 27.0909 1324.16 23.3774C1450.76 20.977 1478.46 9.53584 1608.76 4.80948C1769.12 -0.997205 1912.27 9.64725 2015 20.8454C2014.75 66.142 2014.51 111.436 2014.26 156.728Z" fill="#EFA942" fill-opacity="0.28"/>
</g>
<defs>
<clipPath id="clip0_136_2075">
<rect width="2015" height="171" fill="white"/>
</clipPath>
</defs>
</svg>
