<svg width="120" height="40" viewBox="0 0 120 40" fill="none" xmlns="http://www.w3.org/2000/svg">
<path d="M0 5C0 2.23858 2.23858 0 5 0H115C117.761 0 120 2.23858 120 5V35C120 37.7614 117.761 40 115 40H5C2.23858 40 0 37.7614 0 35V5Z" fill="#FBEAD1" fill-opacity="0.29"/>
<path d="M60.5654 21.7511C58.4747 21.7511 56.7707 23.5401 56.7707 26.0041C56.7707 28.4531 58.4747 30.2571 60.5654 30.2571C62.6569 30.2571 64.3609 28.4531 64.3609 26.0041C64.36 23.5401 62.656 21.7511 60.5654 21.7511ZM60.5654 28.5831C59.4196 28.5831 58.432 27.5201 58.432 26.0051C58.432 24.4741 59.4205 23.4271 60.5654 23.4271C61.7111 23.4271 62.6987 24.4741 62.6987 26.0051C62.6987 27.5191 61.7111 28.5831 60.5654 28.5831ZM52.2863 21.7511C50.1956 21.7511 48.4916 23.5401 48.4916 26.0041C48.4916 28.4531 50.1956 30.2571 52.2863 30.2571C54.3778 30.2571 56.0818 28.4531 56.0818 26.0041C56.0818 23.5401 54.3778 21.7511 52.2863 21.7511ZM52.2863 28.5831C51.1405 28.5831 50.1529 27.5201 50.1529 26.0051C50.1529 24.4741 51.1414 23.4271 52.2863 23.4271C53.432 23.4271 54.4196 24.4741 54.4196 26.0051C54.4205 27.5191 53.432 28.5831 52.2863 28.5831ZM42.4391 23.0571V24.8611H46.2774C46.1627 25.8761 45.8623 26.6171 45.4036 27.1321C44.8454 27.7601 43.9716 28.4531 42.4391 28.4531C40.0765 28.4531 38.2294 26.3101 38.2294 23.6521C38.2294 20.9941 40.0765 18.8511 42.4391 18.8511C43.7138 18.8511 44.6445 19.4151 45.3316 20.1401L46.4631 18.8671C45.5031 17.8361 44.2294 17.0471 42.4391 17.0471C39.2027 17.0471 36.4818 20.0111 36.4818 23.6521C36.4818 27.2931 39.2027 30.2571 42.4391 30.2571C44.1858 30.2571 45.504 29.6121 46.5343 28.4041C47.5938 27.2121 47.9236 25.5361 47.9236 24.1831C47.9236 23.7651 47.8951 23.3781 47.8374 23.0561H42.4391V23.0571ZM82.7129 24.4581C82.3983 23.5081 81.4383 21.7511 79.4765 21.7511C77.5289 21.7511 75.9103 23.4751 75.9103 26.0041C75.9103 28.3881 77.5147 30.2571 79.6623 30.2571C81.3947 30.2571 82.3974 29.0651 82.8134 28.3721L81.5245 27.4051C81.0951 28.1141 80.5076 28.5811 79.6623 28.5811C78.8178 28.5811 78.216 28.1461 77.8294 27.2921L82.8845 24.9401L82.7129 24.4581ZM77.5574 25.8761C77.5147 24.2321 78.6889 23.3951 79.5343 23.3951C80.1929 23.3951 80.7511 23.7661 80.9378 24.2971L77.5574 25.8761ZM73.448 30.0001H75.1085V17.4991H73.448V30.0001ZM70.7263 22.7021H70.6694C70.2969 22.2021 69.5805 21.7511 68.6791 21.7511C66.7885 21.7511 65.056 23.6201 65.056 26.0211C65.056 28.4051 66.7885 30.2581 68.6791 30.2581C69.5814 30.2581 70.2969 29.8071 70.6694 29.2921H70.7263V29.9041C70.7263 31.5311 69.9529 32.4011 68.7076 32.4011C67.6907 32.4011 67.0605 31.5801 66.8027 30.8871L65.3565 31.5641C65.7716 32.6911 66.8738 34.0771 68.7076 34.0771C70.6551 34.0771 72.3023 32.7881 72.3023 29.6461V22.0101H70.7271V22.7021H70.7263ZM68.8223 28.5831C67.6765 28.5831 66.7174 27.5031 66.7174 26.0211C66.7174 24.5221 67.6765 23.4271 68.8223 23.4271C69.9529 23.4271 70.8409 24.5221 70.8409 26.0211C70.8409 27.5031 69.9529 28.5831 68.8223 28.5831ZM90.4943 17.4991H86.52V30.0001H88.1778V25.2641H90.4934C92.3316 25.2641 94.1396 23.7671 94.1396 21.3821C94.1396 18.9971 92.3325 17.4991 90.4943 17.4991ZM90.5369 23.5241H88.1778V19.2391H90.5369C91.7769 19.2391 92.4809 20.3941 92.4809 21.3821C92.4809 22.3501 91.7769 23.5241 90.5369 23.5241ZM100.788 21.7291C99.5867 21.7291 98.3431 22.3241 97.8285 23.6431L99.3005 24.3341C99.6151 23.6431 100.202 23.4171 100.816 23.4171C101.674 23.4171 102.546 23.9961 102.56 25.0251V25.1541C102.26 24.9611 101.616 24.6721 100.83 24.6721C99.2436 24.6721 97.6276 25.6531 97.6276 27.4861C97.6276 29.1591 98.9289 30.2361 100.387 30.2361C101.501 30.2361 102.116 29.6731 102.502 29.0131H102.559V29.9781H104.161V25.1851C104.162 22.9671 102.688 21.7291 100.788 21.7291ZM100.587 28.5801C100.044 28.5801 99.2863 28.2741 99.2863 27.5181C99.2863 26.5531 100.23 26.1831 101.045 26.1831C101.773 26.1831 102.117 26.3601 102.56 26.6011C102.431 27.7601 101.545 28.5801 100.587 28.5801ZM109.994 22.0021L108.092 27.4221H108.036L106.062 22.0021H104.276L107.235 29.5771L105.548 33.7911H107.277L111.838 22.0021H109.994ZM95.0551 30.0001H96.7129V17.4991H95.0551V30.0001Z" fill="#34786B"/>
<path d="M42.1493 10.2429C42.1493 11.0809 41.9289 11.7479 41.4871 12.2459C40.9858 12.8379 40.3315 13.1339 39.528 13.1339C38.7582 13.1339 38.1031 12.8339 37.5653 12.2339C37.0267 11.6329 36.7573 10.8889 36.7573 10.0009C36.7573 9.11194 37.0267 8.36794 37.5653 7.76794C38.1031 7.16694 38.7582 6.86694 39.528 6.86694C39.9102 6.86694 40.2755 6.95094 40.6222 7.11794C40.9698 7.28594 41.248 7.50894 41.456 7.78794L40.9875 8.31594C40.6347 7.84094 40.1484 7.60394 39.5271 7.60394C38.9653 7.60394 38.48 7.82594 38.0702 8.26994C37.6604 8.71394 37.456 9.29094 37.456 9.99994C37.456 10.7089 37.6604 11.2859 38.0702 11.7299C38.48 12.1739 38.9653 12.3959 39.5271 12.3959C40.1227 12.3959 40.6195 12.1729 41.0169 11.7259C41.2747 11.4349 41.424 11.0299 41.464 10.5109H39.5271V9.78994H42.1111C42.1378 9.94694 42.1493 10.0979 42.1493 10.2429Z" fill="#34786B"/>
<path d="M46.2472 7.737H43.8187V9.639H46.009V10.36H43.8187V12.262H46.2472V13H43.1334V7H46.2472V7.737Z" fill="#34786B"/>
<path d="M49.1369 13H48.4515V7.737H46.9618V7H50.6266V7.737H49.1369V13Z" fill="#34786B"/>
<path d="M53.2782 13V7H53.9635V13H53.2782Z" fill="#34786B"/>
<path d="M57.0027 13H56.3174V7.737H54.8276V7H58.4925V7.737H57.0027V13Z" fill="#34786B"/>
<path d="M65.4301 12.225C64.9057 12.831 64.2541 13.134 63.4746 13.134C62.695 13.134 62.0434 12.831 61.5199 12.225C60.9954 11.619 60.7341 10.877 60.7341 9.99999C60.7341 9.12299 60.9954 8.38099 61.5199 7.77499C62.0434 7.16899 62.695 6.86499 63.4746 6.86499C64.2497 6.86499 64.9003 7.16999 65.4266 7.77899C65.9528 8.38799 66.2159 9.12799 66.2159 9.99999C66.2159 10.877 65.9537 11.619 65.4301 12.225ZM62.0257 11.722C62.4203 12.172 62.903 12.396 63.4746 12.396C64.0461 12.396 64.5297 12.171 64.9234 11.722C65.3181 11.272 65.5163 10.698 65.5163 9.99999C65.5163 9.30199 65.3181 8.72799 64.9234 8.27799C64.5297 7.82799 64.0461 7.60399 63.4746 7.60399C62.903 7.60399 62.4203 7.82899 62.0257 8.27799C61.6319 8.72799 61.4337 9.30199 61.4337 9.99999C61.4337 10.698 61.6319 11.272 62.0257 11.722Z" fill="#34786B"/>
<path d="M67.1777 13V7H68.0115L70.6035 11.667H70.6328L70.6035 10.511V7H71.2888V13H70.5732L67.8612 8.106H67.8319L67.8612 9.262V13H67.1777Z" fill="#34786B"/>
<path d="M42.1493 10.2429C42.1493 11.0809 41.9289 11.7479 41.4871 12.2459C40.9858 12.8379 40.3315 13.1339 39.528 13.1339C38.7582 13.1339 38.1031 12.8339 37.5653 12.2339C37.0267 11.6329 36.7573 10.8889 36.7573 10.0009C36.7573 9.11194 37.0267 8.36794 37.5653 7.76794C38.1031 7.16694 38.7582 6.86694 39.528 6.86694C39.9102 6.86694 40.2755 6.95094 40.6222 7.11794C40.9698 7.28594 41.248 7.50894 41.456 7.78794L40.9875 8.31594C40.6347 7.84094 40.1484 7.60394 39.5271 7.60394C38.9653 7.60394 38.48 7.82594 38.0702 8.26994C37.6604 8.71394 37.456 9.29094 37.456 9.99994C37.456 10.7089 37.6604 11.2859 38.0702 11.7299C38.48 12.1739 38.9653 12.3959 39.5271 12.3959C40.1227 12.3959 40.6195 12.1729 41.0169 11.7259C41.2747 11.4349 41.424 11.0299 41.464 10.5109H39.5271V9.78994H42.1111C42.1378 9.94694 42.1493 10.0979 42.1493 10.2429Z" stroke="#FBEAD1" stroke-width="0.2" stroke-miterlimit="10"/>
<path d="M46.2472 7.737H43.8187V9.639H46.009V10.36H43.8187V12.262H46.2472V13H43.1334V7H46.2472V7.737Z" stroke="#FBEAD1" stroke-width="0.2" stroke-miterlimit="10"/>
<path d="M49.1369 13H48.4515V7.737H46.9618V7H50.6266V7.737H49.1369V13Z" stroke="#FBEAD1" stroke-width="0.2" stroke-miterlimit="10"/>
<path d="M53.2782 13V7H53.9635V13H53.2782Z" stroke="#FBEAD1" stroke-width="0.2" stroke-miterlimit="10"/>
<path d="M57.0027 13H56.3174V7.737H54.8276V7H58.4925V7.737H57.0027V13Z" stroke="#FBEAD1" stroke-width="0.2" stroke-miterlimit="10"/>
<path d="M65.4301 12.225C64.9057 12.831 64.2541 13.134 63.4746 13.134C62.695 13.134 62.0434 12.831 61.5199 12.225C60.9954 11.619 60.7341 10.877 60.7341 9.99999C60.7341 9.12299 60.9954 8.38099 61.5199 7.77499C62.0434 7.16899 62.695 6.86499 63.4746 6.86499C64.2497 6.86499 64.9003 7.16999 65.4266 7.77899C65.9528 8.38799 66.2159 9.12799 66.2159 9.99999C66.2159 10.877 65.9537 11.619 65.4301 12.225ZM62.0257 11.722C62.4203 12.172 62.903 12.396 63.4746 12.396C64.0461 12.396 64.5297 12.171 64.9234 11.722C65.3181 11.272 65.5163 10.698 65.5163 9.99999C65.5163 9.30199 65.3181 8.72799 64.9234 8.27799C64.5297 7.82799 64.0461 7.60399 63.4746 7.60399C62.903 7.60399 62.4203 7.82899 62.0257 8.27799C61.6319 8.72799 61.4337 9.30199 61.4337 9.99999C61.4337 10.698 61.6319 11.272 62.0257 11.722Z" stroke="#FBEAD1" stroke-width="0.2" stroke-miterlimit="10"/>
<path d="M67.1777 13V7H68.0115L70.6035 11.667H70.6328L70.6035 10.511V7H71.2888V13H70.5732L67.8612 8.106H67.8319L67.8612 9.262V13H67.1777Z" stroke="#FBEAD1" stroke-width="0.2" stroke-miterlimit="10"/>
<g filter="url(#filter0_ii_136_2140)">
<path d="M9.27642 7.53797C9.01776 7.84597 8.86487 8.32397 8.86487 8.94297V31.059C8.86487 31.679 9.01776 32.156 9.27642 32.464L9.3422 32.536L20.3546 20.147V20.001V19.855L9.3422 7.46497L9.27642 7.53797Z" fill="#34786B"/>
<path d="M24.0248 24.278L20.3546 20.147V20.001V19.855L24.0257 15.725L24.1084 15.778L28.4577 18.558C29.6995 19.352 29.6995 20.651 28.4577 21.446L24.1084 24.226L24.0248 24.278Z" fill="#34786B"/>
<g filter="url(#filter1_i_136_2140)">
<path d="M24.1084 24.225L20.3537 20.001L9.27637 32.464C9.68526 32.952 10.3617 33.012 11.1235 32.526L24.1084 24.225Z" fill="#436B64"/>
</g>
<path d="M24.1084 15.7769L11.1235 7.47694C10.3617 6.98994 9.68526 7.05094 9.27637 7.53894L20.3546 20.0019L24.1084 15.7769Z" fill="#436B64"/>
</g>
<path d="M5 1H115V-1H5V1ZM119 5V35H121V5H119ZM115 39H5V41H115V39ZM1 35V5H-1V35H1ZM5 39C2.79086 39 1 37.2091 1 35H-1C-1 38.3137 1.68629 41 5 41V39ZM119 35C119 37.2091 117.209 39 115 39V41C118.314 41 121 38.3137 121 35H119ZM115 1C117.209 1 119 2.79086 119 5H121C121 1.68629 118.314 -1 115 -1V1ZM5 -1C1.68629 -1 -1 1.68629 -1 5H1C1 2.79086 2.79086 1 5 1V-1Z" fill="#34786B" fill-opacity="0.1"/>
<defs>
<filter id="filter0_ii_136_2140" x="8.86487" y="7.14087" width="20.5242" height="25.7208" filterUnits="userSpaceOnUse" color-interpolation-filters="sRGB">
<feFlood flood-opacity="0" result="BackgroundImageFix"/>
<feBlend mode="normal" in="SourceGraphic" in2="BackgroundImageFix" result="shape"/>
<feColorMatrix in="SourceAlpha" type="matrix" values="0 0 0 0 0 0 0 0 0 0 0 0 0 0 0 0 0 0 127 0" result="hardAlpha"/>
<feOffset dy="-0.15"/>
<feComposite in2="hardAlpha" operator="arithmetic" k2="-1" k3="1"/>
<feColorMatrix type="matrix" values="0 0 0 0 0 0 0 0 0 0 0 0 0 0 0 0 0 0 0.12 0"/>
<feBlend mode="normal" in2="shape" result="effect1_innerShadow_136_2140"/>
<feColorMatrix in="SourceAlpha" type="matrix" values="0 0 0 0 0 0 0 0 0 0 0 0 0 0 0 0 0 0 127 0" result="hardAlpha"/>
<feOffset dy="0.15"/>
<feComposite in2="hardAlpha" operator="arithmetic" k2="-1" k3="1"/>
<feColorMatrix type="matrix" values="0 0 0 0 1 0 0 0 0 1 0 0 0 0 1 0 0 0 0.25 0"/>
<feBlend mode="normal" in2="effect1_innerShadow_136_2140" result="effect2_innerShadow_136_2140"/>
</filter>
<filter id="filter1_i_136_2140" x="9.27637" y="20.001" width="14.832" height="12.8607" filterUnits="userSpaceOnUse" color-interpolation-filters="sRGB">
<feFlood flood-opacity="0" result="BackgroundImageFix"/>
<feBlend mode="normal" in="SourceGraphic" in2="BackgroundImageFix" result="shape"/>
<feColorMatrix in="SourceAlpha" type="matrix" values="0 0 0 0 0 0 0 0 0 0 0 0 0 0 0 0 0 0 127 0" result="hardAlpha"/>
<feOffset dy="-0.15"/>
<feComposite in2="hardAlpha" operator="arithmetic" k2="-1" k3="1"/>
<feColorMatrix type="matrix" values="0 0 0 0 0 0 0 0 0 0 0 0 0 0 0 0 0 0 0.08 0"/>
<feBlend mode="normal" in2="shape" result="effect1_innerShadow_136_2140"/>
</filter>
</defs>
</svg>
