<svg width="90" height="90" viewBox="0 0 90 90" fill="none" xmlns="http://www.w3.org/2000/svg">
<rect x="1" y="1" width="88" height="88" rx="14" fill="white" stroke="#EFA942" stroke-width="2"/>
<path d="M65.4166 15.8334H24.5833C22.2626 15.8334 20.037 16.7552 18.3961 18.3962C16.7551 20.0371 15.8333 22.2627 15.8333 24.5834V65.4167C15.8333 67.7374 16.7551 69.963 18.3961 71.6039C20.037 73.2448 22.2626 74.1667 24.5833 74.1667H65.4166C65.8963 74.16 66.3746 74.1112 66.8458 74.0209L67.7208 73.8167H67.9249H68.0708L69.1499 73.4084L69.5291 73.2042C69.8208 73.0292 70.1416 72.8834 70.4333 72.6792C70.8227 72.3927 71.193 72.0809 71.5416 71.7459L71.7458 71.4834C72.0321 71.1932 72.2954 70.8811 72.5333 70.55L72.7958 70.1709C72.9995 69.8462 73.1751 69.5046 73.3208 69.15C73.4008 69.0101 73.4691 68.8638 73.5249 68.7125C73.6708 68.3625 73.7583 67.9834 73.8749 67.6042V67.1667C74.0403 66.5968 74.1382 66.0094 74.1666 65.4167V24.5834C74.1666 22.2627 73.2447 20.0371 71.6038 18.3962C69.9628 16.7552 67.7372 15.8334 65.4166 15.8334ZM24.5833 68.3334C23.8097 68.3334 23.0678 68.0261 22.5209 67.4791C21.9739 66.9321 21.6666 66.1903 21.6666 65.4167V52.8459L31.2624 43.2209C31.5336 42.9475 31.8561 42.7305 32.2116 42.5824C32.567 42.4344 32.9482 42.3581 33.3333 42.3581C33.7183 42.3581 34.0995 42.4344 34.4549 42.5824C34.8104 42.7305 35.1329 42.9475 35.4041 43.2209L60.4874 68.3334H24.5833ZM68.3333 65.4167C68.3305 65.7763 68.2613 66.1323 68.1291 66.4667C68.0624 66.6089 67.9844 66.7454 67.8958 66.875C67.8177 66.9985 67.7299 67.1156 67.6333 67.225L52.0291 51.6209L54.5958 49.0542C54.8669 48.7808 55.1895 48.5639 55.5449 48.4158C55.9003 48.2677 56.2816 48.1915 56.6666 48.1915C57.0516 48.1915 57.4328 48.2677 57.7883 48.4158C58.1437 48.5639 58.4663 48.7808 58.7374 49.0542V49.0542L68.3333 58.6792V65.4167ZM68.3333 50.425L62.8499 45C61.1808 43.4163 58.9675 42.5334 56.6666 42.5334C54.3656 42.5334 52.1524 43.4163 50.4833 45L47.9166 47.5667L39.5166 39.1667C37.8474 37.5829 35.6342 36.7 33.3333 36.7C31.0323 36.7 28.8191 37.5829 27.1499 39.1667L21.6666 44.5917V24.5834C21.6666 23.8098 21.9739 23.068 22.5209 22.521C23.0678 21.974 23.8097 21.6667 24.5833 21.6667H65.4166C66.1901 21.6667 66.932 21.974 67.479 22.521C68.026 23.068 68.3333 23.8098 68.3333 24.5834V50.425ZM49.3749 27.5C48.5096 27.5 47.6638 27.7566 46.9443 28.2374C46.2248 28.7181 45.6641 29.4014 45.3329 30.2008C45.0018 31.0002 44.9152 31.8799 45.084 32.7286C45.2528 33.5772 45.6695 34.3568 46.2813 34.9686C46.8932 35.5805 47.6727 35.9972 48.5214 36.166C49.3701 36.3348 50.2497 36.2481 51.0492 35.917C51.8486 35.5859 52.5319 35.0251 53.0126 34.3057C53.4933 33.5862 53.7499 32.7403 53.7499 31.875C53.7499 30.7147 53.289 29.6019 52.4685 28.7814C51.648 27.961 50.5352 27.5 49.3749 27.5Z" fill="#EFA942"/>
</svg>
